<svg xmlns="http://www.w3.org/2000/svg" version="1.1" viewBox="0 0 69 42">
    <g fill="#000" fill-rule="evenodd">
        <path d="M.66 28.347V0h17.207l.53 7.753H8.761v3.695h7.851v7.737H8.705v9.162H.66M66.935 28.263l-8.61-14.707L66.147 0H57.53l-3.573 6.102L50.444 0H41.53l7.97 13.65-8.442 14.63 8.66-.004 4.133-7.164 4.177 7.151h8.908"/>
        <path d="M34.24 19.87V8.544c0-1.289-1.132-2.448-2.41-2.448-1.272 0-2.304 1.16-2.304 2.448l-.005 11.29c0 1.293 1.037 2.34 2.31 2.34 1.277 0 2.41-1.011 2.41-2.306zm-16.062-5.662c0-7.606 6.094-13.78 13.612-13.78 7.525 0 13.621 6.174 13.621 13.78 0 7.617-6.096 13.786-13.621 13.786-7.518 0-13.612-6.169-13.612-13.786zM0 40.651v-1.465l.755-.725H6.86l.23-.228V36.68l-.166-.168H1.257L0 35.267v-3.57l1.45-1.437h8.215v1.58l-.59.6H3.114l-.23.228v1.516l.166.163h5.655l1.256 1.25v3.618L8.514 40.65H0M18.579 35.291l.423-.418v-1.99l-.423-.419h-3.933v2.827h3.933zm-6.82-5.03h8.526l1.615 1.6v3.851l-1.615 1.603h-5.639v3.336h-2.887v-10.39zM30.228 38.218l.596-.58v-4.536l-.596-.587h-3.356l-.588.587v4.535l.588.581h3.356zm-6.815.835v-7.191l1.6-1.602h7.077l1.615 1.602v7.191l-1.615 1.598h-7.076l-1.601-1.598zM42.357 34.718l.41-.407v-1.515l-.41-.407h-3.885v2.329h3.885zM35.59 30.26h8.614l1.45 1.436v3.317l-1.384 1.373 1.821 4.265h-3.208l-1.356-3.769h-3.054v3.77H35.59V30.26zM49.96 32.668h-3.334V30.26h9.553v2.408h-3.333v7.983h-2.885v-7.983M57.736 40.937V39.47l.757-.725h6.104l.23-.227v-1.554l-.166-.167h-5.665l-1.26-1.246v-3.57l1.45-1.437h8.217v1.58l-.59.6h-5.958l-.231.228v1.516l.165.164h5.657l1.255 1.25V39.5l-1.45 1.437h-8.515"/>
    </g>
</svg>
